<svg class="svg-icon" style="width: 1em;height: 1em;vertical-align: middle;fill: currentColor;overflow: hidden;" viewBox="0 0 1024 1024" version="1.1" xmlns="http://www.w3.org/2000/svg"><path d="M510.4 174.4c184 0 332.8 148.8 332.8 332.8s-148.8 332.8-332.8 332.8-332.8-148.8-332.8-332.8 148.8-332.8 332.8-332.8m0-48C300.8 126.4 129.6 297.6 129.6 508.8s171.2 380.8 380.8 380.8 380.8-171.2 380.8-380.8S721.6 126.4 510.4 126.4z"  /><path d="M446.4 745.6c-6.4 0-12.8-1.6-17.6-6.4-9.6-9.6-9.6-24 0-33.6l214.4-214.4c9.6-9.6 24-9.6 33.6 0 9.6 9.6 9.6 24 0 33.6L462.4 739.2c-3.2 4.8-9.6 6.4-16 6.4z"  /><path d="M659.2 532.8c-6.4 0-12.8-1.6-17.6-6.4L428.8 310.4c-9.6-9.6-9.6-24 0-33.6 9.6-9.6 24-9.6 33.6 0l214.4 214.4c9.6 9.6 9.6 24 0 33.6-4.8 4.8-11.2 8-17.6 8z"  /></svg>